<svg width="16" height="16" viewBox="0 0 16 16" fill="none" xmlns="http://www.w3.org/2000/svg">
<path d="M12.6745 9.64297C12.4771 9.83373 12.3864 10.1096 12.4313 10.3802L13.1088 14.1194C13.166 14.4363 13.0319 14.757 12.7659 14.9402C12.5053 15.1302 12.1585 15.153 11.8743 15.001L8.49892 13.2454C8.38156 13.1831 8.25124 13.1496 8.11787 13.1458H7.91135C7.83971 13.1565 7.7696 13.1793 7.70558 13.2142L4.32949 14.9782C4.16259 15.0618 3.97359 15.0914 3.7884 15.0618C3.33724 14.9767 3.03621 14.548 3.11013 14.0958L3.7884 10.3566C3.83336 10.0838 3.74268 9.80637 3.54529 9.61257L0.79336 6.95255C0.563207 6.72986 0.483186 6.39546 0.588356 6.09374C0.690477 5.79278 0.951114 5.57314 1.26586 5.52374L5.05348 4.97577C5.34155 4.94613 5.59457 4.77133 5.72413 4.51293L7.39312 1.1005C7.43275 1.0245 7.48381 0.954581 7.54554 0.8953L7.61413 0.8421C7.64995 0.80258 7.6911 0.769899 7.73683 0.743299L7.81989 0.712899L7.94945 0.659698H8.27029C8.55684 0.689339 8.8091 0.86034 8.94094 1.1157L10.632 4.51293C10.754 4.76145 10.991 4.93397 11.2646 4.97577L15.0522 5.52374C15.3723 5.56934 15.6398 5.78974 15.7457 6.09374C15.8455 6.3985 15.7594 6.7329 15.5247 6.95255L12.6745 9.64297Z" fill="#F6B76F"/>
</svg>
