<svg aria-hidden="true" style="position: absolute; width: 0; height: 0; overflow: hidden;" version="1.1" xmlns="http://www.w3.org/2000/svg" xmlns:xlink="http://www.w3.org/1999/xlink">
<defs>
<symbol id="icon-site-logo" viewBox="0 0 32 32">
<path d="M15.943 2.567c-0.010 0.518-0.018 1.11-0.020 1.317-0.002 0.388-0.015 0.397-0.072 0.053-0.078-0.442-0.283-0.893-0.523-1.145-0.232-0.245-0.67-0.425-1.29-0.527-0.255-0.042-0.863-0.098-0.88-0.080s0.408 0.635 0.65 0.948c0.46 0.59 0.805 0.912 1.15 1.075 0.22 0.105 0.53 0.205 0.707 0.23 0.123 0.015 0.13 0.020 0.185 0.138l0.057 0.122-0.020 1.657c-0.010 0.912-0.025 1.94-0.035 2.287l-0.015 0.63-0.165-0.125-0.165-0.123-0.015-0.16c-0.033-0.34-0.238-1.008-0.43-1.388-0.245-0.487-0.633-0.89-1.383-1.425-0.158-0.112-0.297-0.202-0.31-0.202-0.045 0-0.002 0.583 0.068 0.923 0.113 0.54 0.335 1.157 0.512 1.415 0.18 0.262 0.447 0.498 0.725 0.637 0.158 0.080 0.435 0.17 0.575 0.19 0.1 0.012 0.152 0.043 0.307 0.172 0.102 0.085 0.21 0.172 0.24 0.193l0.050 0.035-0.020 1.338c-0.010 0.735-0.015 1.342-0.010 1.353 0.005 0.012 0.078 0.020 0.16 0.020h0.147v-0.258c0-0.14-0.017-1.328-0.038-2.64-0.027-1.895-0.027-2.393-0.003-2.412 0.015-0.015 0.070-0.080 0.12-0.143l0.090-0.112 0.223 0.048c0.163 0.035 0.335 0.048 0.657 0.050 0.405 0.005 0.448 0 0.582-0.053 0.485-0.197 0.975-0.72 1.325-1.417 0.102-0.205 0.192-0.405 0.192-0.428 0-0.020-0.622-0.008-0.85 0.015-0.815 0.085-1.352 0.26-1.635 0.532-0.115 0.11-0.175 0.207-0.39 0.63-0.14 0.275-0.275 0.522-0.302 0.55-0.047 0.048-0.047 0.045-0.047-0.213-0.003-0.145-0.008-0.612-0.015-1.037-0.008-0.428-0.023-1.407-0.032-2.183-0.012-0.775-0.027-1.413-0.033-1.42-0.008-0.005-0.020 0.413-0.027 0.933z"></path>
<path d="M25.275 3.083c0.163 0.325 0.297 0.708 0.367 1.055 0.067 0.345 0.063 1.133-0.012 1.48-0.247 1.145-0.965 2.088-1.968 2.588-0.392 0.197-0.793 0.307-1.637 0.447-0.663 0.11-0.65 0.11-0.65 0.065 0-0.107 0.055-0.21 0.133-0.248 0.13-0.063 0.558-0.395 0.8-0.62 0.605-0.567 0.872-1.105 1.102-2.22 0.073-0.345 0.080-0.43 0.032-0.43-0.058 0-0.448 0.21-0.685 0.37-0.31 0.21-0.622 0.473-0.907 0.77-0.343 0.353-0.473 0.585-0.563 0.995-0.050 0.23-0.043 0.75 0.017 0.94 0.032 0.102 0.030 0.127-0.023 0.31-0.030 0.11-0.060 0.2-0.063 0.203-0.005 0-0.125 0.027-0.27 0.060-1.113 0.242-1.893 0.783-2.555 1.765-0.215 0.32-0.558 0.995-0.703 1.387-0.050 0.13-0.095 0.255-0.105 0.277-0.012 0.035 0.020 0.053 0.163 0.095 0.1 0.030 0.183 0.053 0.185 0.047s0.055-0.143 0.113-0.307c0.128-0.355 0.305-0.76 0.435-0.992 0.080-0.143 0.108-0.172 0.185-0.193 0.085-0.025 0.098-0.020 0.183 0.057 0.24 0.217 0.65 0.443 0.942 0.515 0.398 0.102 1.113 0.12 1.907 0.047 0.375-0.033 0.475-0.050 0.475-0.078 0-0.050-0.62-0.64-0.875-0.83-0.302-0.227-0.645-0.402-0.87-0.445-0.375-0.070-1.005 0.115-1.525 0.447-0.075 0.047-0.148 0.080-0.16 0.078-0.015-0.005 0.043-0.1 0.125-0.21 0.315-0.418 0.645-0.725 1.040-0.973 0.445-0.277 0.965-0.438 2.053-0.637 1.085-0.2 1.602-0.377 2.152-0.745 0.26-0.175 0.602-0.487 0.788-0.72 0.090-0.115 0.135-0.155 0.15-0.133 0.015 0.027 0.052 0.025 0.19-0.008 0.105-0.027 0.323-0.048 0.57-0.055 0.47-0.015 0.72-0.065 1.027-0.215 0.387-0.188 0.665-0.588 0.907-1.315 0.135-0.4 0.235-0.835 0.192-0.835-0.023 0-0.547 0.24-0.82 0.378-0.558 0.28-1.045 0.598-1.282 0.835-0.198 0.195-0.47 0.66-0.535 0.905-0.020 0.067-0.047 0.11-0.080 0.12-0.078 0.025-0.082 0-0.015-0.105 0.035-0.055 0.113-0.2 0.175-0.322 0.45-0.895 0.525-1.942 0.212-2.935-0.075-0.243-0.33-0.788-0.42-0.9-0.027-0.035 0.017 0.070 0.1 0.232z"></path>
<path d="M6.742 2.933c-0.147 0.228-0.343 0.697-0.428 1.035-0.093 0.367-0.115 0.567-0.115 0.978 0 0.735 0.188 1.425 0.545 2.013 0.095 0.155 0.098 0.17 0.050 0.162-0.060-0.008-0.067-0.020-0.155-0.26-0.2-0.54-0.577-0.933-1.303-1.353-0.343-0.2-1.28-0.65-1.303-0.627-0.010 0.013 0.157 0.655 0.228 0.857 0.105 0.31 0.345 0.785 0.48 0.95 0.157 0.192 0.335 0.315 0.598 0.41 0.28 0.103 0.603 0.152 0.973 0.152 0.19 0 0.357 0.015 0.45 0.037 0.080 0.022 0.16 0.035 0.178 0.027 0.015-0.005 0.105 0.075 0.197 0.18 0.325 0.372 0.73 0.69 1.155 0.903 0.432 0.215 0.803 0.322 1.745 0.505 0.86 0.168 0.96 0.19 1.275 0.29 0.473 0.152 0.883 0.38 1.215 0.675 0.305 0.275 0.678 0.713 0.627 0.742-0.010 0.005-0.080-0.027-0.155-0.078-0.43-0.277-0.955-0.457-1.338-0.46-0.355-0.002-0.613 0.11-1.092 0.47-0.238 0.18-0.845 0.76-0.845 0.807 0 0.035 0.065 0.045 0.575 0.090 0.595 0.050 1.43 0.037 1.725-0.027 0.328-0.072 0.688-0.252 0.967-0.485 0.155-0.127 0.17-0.133 0.252-0.113 0.075 0.020 0.107 0.053 0.195 0.197 0.137 0.223 0.35 0.69 0.485 1.075 0.060 0.165 0.115 0.307 0.123 0.318 0.010 0.010 0.090 0 0.178-0.025 0.135-0.037 0.16-0.053 0.155-0.092-0.018-0.113-0.297-0.772-0.455-1.080-0.303-0.585-0.592-0.98-1.027-1.393-0.522-0.498-1.033-0.762-1.85-0.96l-0.28-0.070-0.055-0.188c-0.047-0.17-0.050-0.197-0.020-0.31 0.057-0.213 0.070-0.695 0.023-0.92-0.088-0.425-0.25-0.705-0.64-1.095-0.408-0.41-0.875-0.758-1.305-0.975-0.273-0.138-0.273-0.138-0.227 0.095 0.152 0.843 0.38 1.49 0.662 1.9 0.238 0.345 0.797 0.865 1.2 1.115 0.148 0.092 0.175 0.12 0.205 0.217 0.018 0.063 0.030 0.12 0.025 0.127-0.010 0.015-0.902-0.125-1.273-0.203-0.59-0.123-1.1-0.328-1.508-0.605-0.105-0.072-0.322-0.26-0.48-0.42-0.54-0.537-0.865-1.14-1.030-1.91-0.080-0.37-0.080-1.14 0-1.508 0.072-0.337 0.18-0.652 0.33-0.973 0.122-0.26 0.138-0.31 0.067-0.203z"></path>
<path d="M3.015 9.762c0.038 0.352 0.208 0.87 0.402 1.238 0.177 0.33 0.348 0.563 0.63 0.855l0.26 0.27h-0.13c-0.12 0-0.138-0.010-0.31-0.152-0.41-0.348-1.040-0.697-1.427-0.797-0.317-0.080-0.8-0.11-1.295-0.075-0.45 0.030-0.57 0.045-0.57 0.075 0 0.037 0.3 0.345 0.507 0.518 0.397 0.33 0.95 0.67 1.277 0.783 0.45 0.155 1.010 0.095 1.46-0.15 0.125-0.070 0.17-0.080 0.385-0.088l0.24-0.010 0.242 0.162c0.558 0.373 1.223 0.615 1.98 0.725 0.388 0.055 1.133 0.050 1.982-0.015 0.9-0.070 1.668-0.060 2.063 0.025 0.342 0.072 0.65 0.18 0.947 0.328 0.137 0.068 0.25 0.123 0.252 0.123s0.063-0.043 0.133-0.098c0.152-0.113 0.16-0.105-0.165-0.265-0.652-0.325-1.355-0.46-2.215-0.428-0.235 0.010-0.47 0.023-0.527 0.030l-0.1 0.015-0.080-0.17c-0.045-0.098-0.092-0.255-0.107-0.36-0.080-0.545-0.29-1.053-0.54-1.31-0.26-0.268-0.75-0.455-1.435-0.55-0.402-0.055-0.75-0.078-0.75-0.047s0.298 0.467 0.535 0.783c0.343 0.457 0.645 0.793 0.907 1.002 0.26 0.207 0.725 0.4 1.11 0.46 0.070 0.010 0.098 0.030 0.133 0.102 0.023 0.050 0.040 0.095 0.035 0.098-0.005 0.005-0.242 0.033-0.533 0.063-0.617 0.068-1.397 0.078-1.763 0.027-0.445-0.063-0.945-0.205-1.337-0.377-0.247-0.11-0.617-0.338-0.638-0.39-0.013-0.033-0.053-0.060-0.1-0.070-0.12-0.023-0.647-0.56-0.848-0.863-0.268-0.405-0.447-0.838-0.575-1.377-0.035-0.155-0.045-0.178-0.038-0.088z"></path>
<path d="M28.915 9.857c-0.145 0.682-0.477 1.33-0.935 1.82-0.22 0.232-0.45 0.422-0.512 0.422-0.025 0-0.043 0.015-0.043 0.035 0 0.047-0.3 0.235-0.625 0.385-0.688 0.325-1.508 0.48-2.313 0.443-0.343-0.015-1.313-0.105-1.33-0.123-0.005-0.005 0.010-0.050 0.032-0.098 0.038-0.080 0.058-0.092 0.157-0.105 0.157-0.020 0.508-0.127 0.698-0.215 0.33-0.15 0.698-0.48 1.12-1.010 0.29-0.365 0.71-0.97 0.71-1.025 0-0.025-0.442 0.005-0.775 0.053-0.695 0.1-1.21 0.303-1.442 0.568-0.235 0.27-0.44 0.785-0.508 1.275-0.017 0.13-0.058 0.268-0.108 0.375l-0.080 0.17-0.148-0.012c-0.872-0.085-1.593-0.023-2.22 0.185-0.262 0.088-0.802 0.342-0.785 0.37 0.005 0.010 0.070 0.060 0.145 0.11l0.133 0.092 0.25-0.125c0.3-0.148 0.617-0.255 0.953-0.325 0.4-0.082 1.175-0.090 2.060-0.023 0.863 0.065 1.598 0.070 1.988 0.015 0.753-0.113 1.43-0.365 1.992-0.742l0.22-0.148 0.245 0.010c0.218 0.008 0.26 0.018 0.383 0.085 0.325 0.185 0.788 0.277 1.137 0.227 0.108-0.015 0.273-0.053 0.363-0.082 0.205-0.072 0.633-0.313 0.948-0.535 0.238-0.168 0.8-0.693 0.8-0.745 0-0.037-0.113-0.055-0.598-0.088-0.62-0.043-1.137 0.010-1.543 0.16-0.343 0.127-1.025 0.557-1.247 0.787-0.067 0.070-0.093 0.078-0.218 0.080h-0.14l0.218-0.22c0.563-0.565 0.907-1.235 1.043-2.013 0.023-0.123 0.035-0.227 0.027-0.232-0.005-0.005-0.027 0.082-0.052 0.197z"></path>
<path d="M15.238 12.762c-1.075 0.152-2.060 0.563-2.925 1.223-0.27 0.205-0.75 0.675-0.973 0.953-0.467 0.575-0.815 1.212-1.050 1.918-0.633 1.893-0.287 3.982 0.922 5.582 1.098 1.453 2.785 2.332 4.598 2.402 1.677 0.065 3.242-0.53 4.448-1.69 1.98-1.907 2.433-4.918 1.1-7.313-0.605-1.088-1.495-1.933-2.62-2.488-0.565-0.28-1.105-0.455-1.738-0.565-0.33-0.057-1.415-0.070-1.762-0.023zM16.872 13.563c0.942 0.133 1.875 0.537 2.628 1.137 0.242 0.195 0.66 0.613 0.852 0.85 0.552 0.687 0.942 1.56 1.113 2.487 0.055 0.3 0.075 1.195 0.038 1.54-0.21 1.835-1.335 3.433-2.997 4.26-0.485 0.24-0.988 0.402-1.567 0.505-0.355 0.060-1.345 0.060-1.7 0-1.175-0.207-2.178-0.712-2.975-1.505-0.813-0.805-1.322-1.775-1.54-2.922-0.075-0.39-0.092-1.233-0.037-1.655 0.335-2.54 2.355-4.488 4.918-4.735 0.313-0.030 0.917-0.012 1.27 0.037z"></path>
<path d="M16.1 15.125c-0.047 0.012-0.21 0.030-0.363 0.040-0.188 0.012-0.258 0.023-0.217 0.037 0.030 0.012 0.055 0.033 0.055 0.045 0 0.018-0.023 0.018-0.065 0.002-0.092-0.037-0.265-0.030-0.32 0.012-0.060 0.045-0.065 0.040 0.13 0.113 0.117 0.043 0.188 0.053 0.28 0.043 0.098-0.012 0.12-0.008 0.11 0.020-0.018 0.045-0.095 0.063-0.285 0.060-0.11 0-0.145-0.008-0.113-0.023 0.045-0.018 0.045-0.023-0.025-0.050-0.095-0.037-0.238-0.063-0.238-0.040 0 0.010 0.037 0.033 0.082 0.053 0.043 0.020 0.065 0.035 0.050 0.037-0.053 0-0.035 0.043 0.025 0.060l0.055 0.018-0.063 0.027c-0.063 0.027-0.063 0.027 0.033 0.053 0.11 0.027 0.152 0.005 0.082-0.047-0.047-0.033-0.045-0.035 0.035-0.035 0.045 0 0.075 0.008 0.068 0.018-0.010 0.008-0.005 0.030 0.010 0.050 0.035 0.043 0.76 0.047 0.785 0.005 0.030-0.047-0.008-0.055-0.313-0.050-0.203 0.002-0.3-0.005-0.3-0.025 0-0.018 0.098-0.023 0.32-0.015 0.363 0.010 0.395 0.005 0.413-0.060 0.010-0.035 0.035-0.047 0.090-0.047 0.047 0 0.085-0.015 0.093-0.037 0.008-0.020 0.055-0.043 0.105-0.050 0.052-0.008 0.148-0.030 0.215-0.050 0.142-0.043 0.2-0.047 0.177-0.012-0.010 0.015 0.017 0.025 0.063 0.025 0.043 0 0.073 0.010 0.065 0.023-0.008 0.010-0.115 0.030-0.24 0.037-0.242 0.020-0.3 0.050-0.17 0.088 0.045 0.012 0.065 0.025 0.045 0.025-0.020 0.002 0 0.020 0.047 0.040 0.055 0.025 0.168 0.037 0.352 0.035 0.22 0 0.29 0.008 0.38 0.050 0.105 0.047 0.17 0.13 0.17 0.215 0 0.027 0.027 0.035 0.1 0.033 0.055-0.002 0.108 0.005 0.12 0.018 0.010 0.010-0.008 0.012-0.040 0.005-0.063-0.015-0.14 0.045-0.115 0.088 0.010 0.015 0.065 0.020 0.128 0.012 0.075-0.008 0.108-0.002 0.1 0.018-0.005 0.015-0.030 0.028-0.058 0.028-0.025 0-0.063 0.010-0.078 0.020-0.045 0.027-0.030 0.145 0.023 0.177 0.025 0.015 0.045 0.040 0.045 0.058 0 0.015 0.060 0.080 0.13 0.142 0.098 0.085 0.152 0.115 0.212 0.115 0.043 0 0.087 0.010 0.095 0.025 0.008 0.012 0.040 0.025 0.070 0.025 0.040 0 0.082-0.043 0.155-0.163 0.102-0.168 0.13-0.185 0.273-0.2 0.093-0.008 0.258-0.078 0.282-0.12 0.020-0.032-0.087-0.123-0.367-0.315-0.477-0.328-1.063-0.603-1.3-0.615-0.075-0.005-0.227-0.020-0.337-0.033-0.235-0.033-0.938-0.035-1.063-0.005zM17.375 15.2c0 0.012-0.038 0.025-0.085 0.025-0.045 0-0.122 0.005-0.168 0.012-0.067 0.010-0.063 0.005 0.027-0.023 0.137-0.043 0.225-0.047 0.225-0.015zM15.775 15.29c0 0.020-0.012 0.030-0.025 0.023-0.015-0.010-0.020-0.027-0.012-0.040 0.023-0.035 0.037-0.027 0.037 0.018zM16.012 15.275c0.008 0.012 0.005 0.025-0.010 0.025-0.012 0-0.033-0.012-0.040-0.025-0.008-0.015-0.005-0.025 0.010-0.025 0.012 0 0.033 0.010 0.040 0.025z"></path>
<path d="M14.95 15.3c0 0.012 0.012 0.025 0.027 0.025 0.012 0 0.018-0.012 0.010-0.025-0.008-0.015-0.020-0.025-0.027-0.025-0.005 0-0.010 0.010-0.010 0.025z"></path>
<path d="M14.617 15.342c-0.027 0.025 0.033 0.080 0.072 0.065 0.020-0.008 0.055-0.005 0.080 0.005 0.080 0.033 0.21 0.037 0.2 0.008-0.015-0.045-0.32-0.113-0.352-0.078z"></path>
<path d="M14.158 15.41c-0.068 0.037-0.050 0.065 0.043 0.065 0.063 0 0.125-0.040 0.125-0.080 0-0.030-0.105-0.020-0.168 0.015z"></path>
<path d="M13.738 15.475c-0.068 0.010-0.152 0.033-0.188 0.045l-0.063 0.027 0.075 0.002c0.043 0.002 0.115 0.008 0.162 0.015 0.068 0.008 0.080 0.002 0.050-0.018-0.033-0.023-0.030-0.025 0.008-0.012 0.050 0.018 0.143-0.023 0.143-0.060 0-0.027-0.008-0.027-0.188 0z"></path>
<path d="M15.52 15.467c0.018 0.008 0.040 0.005 0.047-0.002 0.010-0.008-0.005-0.015-0.033-0.012-0.027 0-0.035 0.008-0.015 0.015z"></path>
<path d="M13.963 15.52c-0.027 0.005-0.070 0.025-0.098 0.045-0.043 0.030-0.040 0.033 0.043 0.047 0.050 0.010 0.102 0.010 0.12-0.002 0.020-0.012 0.025-0.008 0.010 0.012-0.015 0.025 0.037 0.027 0.24 0.015 0.143-0.010 0.268-0.023 0.28-0.030 0.043-0.025 0.012-0.057-0.053-0.057-0.037 0-0.082-0.012-0.098-0.027-0.035-0.035-0.117-0.010-0.095 0.027 0.020 0.035-0.053 0.030-0.188-0.008-0.063-0.018-0.135-0.027-0.162-0.023z"></path>
<path d="M14.65 15.52c0 0.035 0.063 0.055 0.165 0.055 0.047 0 0.085 0.010 0.085 0.025 0 0.040 0.168 0.030 0.182-0.010 0.030-0.075-0.060-0.092-0.295-0.060-0.012 0.002-0.050-0.005-0.080-0.015-0.033-0.010-0.057-0.008-0.057 0.005z"></path>
<path d="M14.65 15.6c0 0.012 0.012 0.025 0.027 0.025 0.012 0 0.018-0.012 0.010-0.025-0.008-0.015-0.020-0.025-0.027-0.025-0.005 0-0.010 0.010-0.010 0.025z"></path>
<path d="M13.39 15.682c0.008 0.023-0.010 0.053-0.040 0.075-0.057 0.040-0.050 0.050 0.063 0.080 0.102 0.027 0.213 0.015 0.255-0.027 0.020-0.020 0.047-0.035 0.063-0.035s0.023 0.008 0.012 0.015c-0.025 0.025 0.068 0.11 0.12 0.11 0.037 0 0.043 0.005 0.015 0.023s-0.025 0.027 0.012 0.050c0.037 0.023 0.018 0.025-0.090 0.010-0.075-0.010-0.193-0.020-0.262-0.020-0.068 0-0.133-0.010-0.143-0.023-0.010-0.015-0.033-0.012-0.055 0.008-0.030 0.025-0.047 0.023-0.1-0.010-0.035-0.023-0.078-0.033-0.092-0.023-0.018 0.010-0.088 0.023-0.158 0.025-0.070 0.005-0.152 0.012-0.182 0.015-0.095 0.012-0.658 0.528-0.658 0.605 0 0.008 0.057 0.015 0.125 0.015 0.152 0 0.285 0.063 0.467 0.218 0.098 0.082 0.143 0.108 0.182 0.095 0.035-0.012 0.055-0.003 0.070 0.032 0.010 0.027 0.053 0.078 0.098 0.115 0.047 0.040 0.075 0.082 0.068 0.102-0.010 0.025 0.023 0.055 0.098 0.090 0.13 0.065 0.18 0.172 0.145 0.328-0.012 0.050-0.012 0.142 0 0.205 0.027 0.152 0.203 0.392 0.325 0.445 0.070 0.030 0.11 0.073 0.155 0.16 0.035 0.067 0.088 0.137 0.117 0.155 0.040 0.025 0.047 0.040 0.025 0.065-0.020 0.027-0.008 0.045 0.063 0.087 0.050 0.027 0.085 0.063 0.078 0.075s0.025 0.052 0.072 0.087c0.082 0.065 0.127 0.055 0.050-0.010-0.020-0.015-0.043-0.055-0.053-0.082-0.010-0.030-0.068-0.115-0.125-0.188-0.060-0.075-0.11-0.15-0.11-0.168 0-0.060 0.095-0.010 0.125 0.065 0.018 0.040 0.072 0.108 0.123 0.152 0.050 0.043 0.090 0.085 0.090 0.093 0.002 0.008 0.063 0.075 0.135 0.145 0.11 0.108 0.13 0.142 0.117 0.192-0.020 0.080 0.050 0.13 0.34 0.25 0.178 0.075 0.227 0.085 0.283 0.065 0.085-0.032 0.072-0.035 0.168 0.045 0.045 0.040 0.137 0.087 0.207 0.105 0.13 0.038 0.238 0.12 0.238 0.188 0 0.020 0.025 0.050 0.057 0.063 0.030 0.015 0.105 0.055 0.165 0.087 0.125 0.070 0.157 0.078 0.137 0.027-0.008-0.017 0.008-0.040 0.032-0.050 0.102-0.040 0.195 0.27 0.105 0.358-0.122 0.122-0.18 0.23-0.165 0.315 0.010 0.055 0.003 0.095-0.020 0.113-0.040 0.032-0.020 0.128 0.038 0.168 0.020 0.015 0.095 0.137 0.163 0.275 0.133 0.262 0.145 0.275 0.308 0.36 0.058 0.030 0.12 0.073 0.135 0.093 0.038 0.045 0.035 0.315-0.005 0.52-0.017 0.082-0.035 0.215-0.043 0.297s-0.040 0.215-0.075 0.293c-0.035 0.080-0.058 0.163-0.047 0.183 0.008 0.023 0.005 0.060-0.008 0.082-0.035 0.067-0.058 0.23-0.032 0.23 0.012 0 0.030-0.025 0.038-0.055 0.010-0.030 0.023-0.047 0.030-0.040 0.030 0.027-0.017 0.148-0.052 0.135-0.023-0.008-0.035 0.005-0.035 0.032 0 0.025-0.017 0.060-0.038 0.078-0.040 0.032-0.052 0.087-0.015 0.063 0.012-0.008 0.030-0.003 0.040 0.010 0.008 0.012-0.005 0.035-0.027 0.047-0.035 0.020-0.040 0.045-0.025 0.145 0.008 0.067 0.032 0.13 0.052 0.142 0.023 0.010 0.032 0.030 0.027 0.040-0.015 0.023 0.192 0.14 0.285 0.16 0.035 0.010 0.113 0.003 0.17-0.015l0.105-0.032-0.085-0.030c-0.060-0.023-0.095-0.055-0.113-0.11-0.038-0.105-0.035-0.145 0.010-0.145 0.020 0 0.038-0.017 0.038-0.038 0-0.023 0.027-0.052 0.063-0.067 0.067-0.030 0.085-0.095 0.027-0.095-0.017 0-0.047-0.015-0.063-0.035-0.025-0.030-0.017-0.043 0.035-0.070 0.035-0.020 0.080-0.063 0.098-0.098 0.017-0.032 0.045-0.058 0.060-0.052 0.017 0.003 0.030-0.012 0.030-0.032 0-0.023-0.015-0.030-0.038-0.023-0.023 0.010-0.038 0-0.038-0.025 0-0.030 0.025-0.040 0.087-0.040 0.078 0 0.087-0.008 0.087-0.063 0-0.047 0.012-0.063 0.058-0.063 0.175 0 0.332-0.11 0.265-0.19-0.015-0.020-0.020-0.035-0.008-0.035s0-0.017-0.025-0.038c-0.058-0.043-0.040-0.045 0.095-0.015 0.087 0.023 0.102 0.017 0.165-0.047 0.040-0.040 0.078-0.095 0.087-0.122 0.008-0.030 0.032-0.052 0.050-0.052 0.020 0 0.050-0.025 0.065-0.058 0.015-0.030 0.050-0.075 0.075-0.1 0.032-0.030 0.043-0.065 0.032-0.105-0.020-0.085 0.085-0.177 0.275-0.235 0.125-0.038 0.165-0.065 0.218-0.14 0.067-0.1 0.122-0.285 0.122-0.415 0-0.040 0.015-0.093 0.035-0.115 0.020-0.025 0.078-0.095 0.125-0.152 0.050-0.060 0.090-0.135 0.090-0.163 0-0.1-0.030-0.168-0.073-0.168-0.023 0-0.087-0.032-0.142-0.073-0.063-0.045-0.14-0.075-0.225-0.085-0.070-0.008-0.165-0.038-0.212-0.065s-0.11-0.055-0.135-0.063c-0.108-0.023-0.163-0.047-0.163-0.073 0-0.015-0.025-0.078-0.052-0.137-0.065-0.13-0.175-0.205-0.308-0.205-0.075 0-0.12-0.020-0.2-0.090-0.055-0.047-0.115-0.098-0.133-0.113-0.017-0.012-0.025-0.040-0.017-0.060 0.010-0.020 0.003-0.038-0.015-0.038-0.015 0-0.020 0.010-0.012 0.025 0.008 0.012 0 0.025-0.023 0.025-0.020 0-0.040-0.015-0.047-0.032-0.008-0.023-0.027-0.023-0.085-0.003-0.045 0.017-0.093 0.020-0.11 0.008-0.020-0.012-0.065-0.023-0.102-0.023-0.040 0-0.070-0.008-0.070-0.020 0-0.010-0.027-0.030-0.063-0.047-0.050-0.023-0.063-0.020-0.063 0.008 0 0.020-0.025 0.035-0.055 0.035-0.045 0-0.050-0.005-0.020-0.025 0.055-0.035 0.008-0.063-0.058-0.030-0.030 0.015-0.085 0.040-0.122 0.055-0.040 0.012-0.070 0.038-0.070 0.052 0 0.017-0.017 0.050-0.040 0.075-0.038 0.043-0.045 0.043-0.102 0.005-0.050-0.032-0.078-0.035-0.15-0.012-0.082 0.025-0.095 0.023-0.157-0.043-0.065-0.065-0.070-0.075-0.047-0.192 0.030-0.152-0.005-0.185-0.193-0.185-0.123 0-0.13-0.003-0.117-0.058 0.012-0.058 0.047-0.15 0.088-0.225 0.030-0.063 0.012-0.078-0.092-0.075s-0.137 0.023-0.137 0.080c0 0.070-0.060 0.105-0.188 0.11-0.123 0.005-0.182-0.040-0.238-0.177-0.030-0.070-0.033-0.215-0.005-0.24 0.010-0.010 0.018-0.055 0.018-0.095 0-0.065 0.018-0.087 0.1-0.135 0.095-0.055 0.252-0.073 0.275-0.032 0.018 0.025 0.113-0.003 0.113-0.032 0-0.035 0.338-0.010 0.385 0.027 0.023 0.020 0.040 0.058 0.040 0.087 0 0.027 0.030 0.085 0.065 0.128 0.052 0.060 0.067 0.067 0.085 0.038 0.035-0.052 0.030-0.082-0.025-0.21-0.025-0.063-0.043-0.133-0.035-0.152 0.015-0.040 0.24-0.212 0.275-0.212 0.050 0 0.087-0.1 0.058-0.152-0.015-0.027-0.020-0.058-0.012-0.067 0.008-0.008 0.015 0 0.015 0.017s0.012 0.023 0.025 0.015c0.015-0.008 0.025-0.032 0.025-0.052 0-0.058 0.122-0.157 0.218-0.175 0.063-0.012 0.080-0.025 0.073-0.058-0.020-0.060 0.010-0.087 0.148-0.142 0.067-0.025 0.133-0.050 0.142-0.055 0.008-0.005 0.010 0.015 0.003 0.043-0.015 0.063 0.010 0.065 0.13 0.015 0.282-0.12 0.27-0.113 0.235-0.152-0.030-0.035-0.035-0.035-0.065 0.005-0.027 0.038-0.043 0.040-0.098 0.015-0.035-0.017-0.075-0.025-0.087-0.015-0.035 0.023-0.058-0.063-0.025-0.1 0.040-0.047-0.008-0.078-0.108-0.070-0.063 0.005-0.067 0-0.040-0.032 0.040-0.047 0.122-0.047 0.185 0 0.027 0.020 0.073 0.038 0.1 0.038 0.043-0.003 0.038-0.010-0.023-0.035-0.075-0.035-0.075-0.035 0.052-0.035 0.070 0 0.165-0.020 0.21-0.043 0.11-0.058 0.12-0.032 0.027 0.082-0.043 0.055-0.078 0.108-0.078 0.115s0.050 0.015 0.11 0.015c0.067 0 0.115 0.012 0.122 0.030 0.008 0.025 0.017 0.025 0.050-0.003 0.027-0.023 0.043-0.025 0.043-0.005 0 0.015 0.023 0.027 0.052 0.027 0.027 0 0.047-0.008 0.043-0.020-0.065-0.133-0.082-0.152-0.142-0.16-0.063-0.008-0.065-0.015-0.058-0.125 0.008-0.098 0-0.122-0.038-0.137-0.025-0.008-0.055-0.030-0.065-0.050-0.010-0.017-0.045-0.032-0.078-0.032-0.030 0-0.075-0.020-0.098-0.045-0.020-0.023-0.093-0.102-0.16-0.175-0.113-0.13-0.12-0.133-0.157-0.087-0.070 0.087-0.13 0.108-0.205 0.067-0.040-0.020-0.070-0.058-0.070-0.085s-0.017-0.050-0.038-0.050c-0.023 0-0.067-0.017-0.102-0.043-0.060-0.038-0.345-0.070-0.39-0.043-0.010 0.008-0.008 0.040 0.008 0.078 0.017 0.050 0.015 0.075-0.017 0.11-0.038 0.043-0.038 0.047 0.025 0.075 0.1 0.045 0.082 0.152-0.030 0.185-0.065 0.017-0.078 0.032-0.063 0.075 0.032 0.098 0.023 0.15-0.032 0.157-0.027 0.005-0.067-0.010-0.085-0.032-0.023-0.027-0.023-0.038-0.003-0.038 0.017 0 0.023-0.012 0.015-0.025-0.010-0.015-0.025-0.020-0.038-0.012s-0.030-0.015-0.040-0.050c-0.015-0.063-0.030-0.070-0.213-0.1-0.053-0.008-0.127-0.030-0.17-0.052-0.040-0.020-0.115-0.040-0.165-0.043-0.057-0.005-0.1-0.025-0.127-0.063-0.020-0.030-0.055-0.055-0.075-0.055-0.063 0-0.037-0.093 0.043-0.16 0.043-0.035 0.090-0.065 0.11-0.065 0.018 0 0.045-0.015 0.060-0.035 0.015-0.017 0.063-0.040 0.1-0.047 0.040-0.010 0.098-0.040 0.125-0.070l0.053-0.058v0.055c0 0.030-0.010 0.055-0.025 0.055-0.012 0-0.025 0.012-0.025 0.027s0.015 0.023 0.035 0.015c0.018-0.008 0.045-0.003 0.060 0.012 0.020 0.020 0.045 0.017 0.085-0.010 0.037-0.025 0.075-0.030 0.107-0.017 0.065 0.025 0.113 0.027 0.113 0.003 0-0.020-0.182-0.105-0.225-0.105-0.015 0-0.025-0.012-0.025-0.027 0-0.012 0.010-0.020 0.023-0.012 0.010 0.008 0.063-0.005 0.113-0.030 0.073-0.038 0.085-0.050 0.060-0.078-0.027-0.027-0.025-0.035 0-0.045s0.025-0.020 0-0.053c-0.027-0.033-0.023-0.037 0.040-0.025 0.040 0.008 0.1 0.002 0.133-0.012 0.045-0.020 0.067-0.015 0.108 0.020 0.035 0.033 0.043 0.055 0.025 0.073-0.040 0.040-0.030 0.065 0.035 0.065 0.032 0 0.065-0.017 0.075-0.038 0.008-0.020 0.027-0.038 0.045-0.038 0.023 0 0.023 0.008-0.005 0.025-0.030 0.020-0.025 0.025 0.025 0.020 0.080-0.010 0.098 0.035 0.027 0.067-0.030 0.012-0.047 0.038-0.043 0.055 0.010 0.020-0.027 0.032-0.117 0.038-0.175 0.010-0.145 0.058 0.038 0.058 0.102 0 0.16 0.012 0.212 0.052 0.038 0.027 0.115 0.060 0.17 0.070s0.125 0.025 0.157 0.032c0.070 0.017 0.073-0.032 0.003-0.055-0.027-0.010-0.045-0.023-0.040-0.027 0.008-0.008 0.052 0.005 0.102 0.025s0.085 0.027 0.078 0.015c-0.008-0.012 0-0.030 0.012-0.038 0.032-0.020-0.040-0.113-0.087-0.113-0.017 0-0.045-0.017-0.063-0.038-0.045-0.052 0.010-0.050 0.102 0.005 0.070 0.043 0.078 0.043 0.16-0.003 0.095-0.052 0.113-0.090 0.045-0.090-0.025 0-0.075-0.015-0.11-0.035-0.035-0.017-0.105-0.040-0.155-0.050-0.052-0.010-0.093-0.027-0.093-0.043s0.012-0.018 0.025-0.010c0.038 0.022 0.030-0.027-0.008-0.057-0.030-0.025-0.142-0.060-0.348-0.102-0.050-0.010-0.135-0.043-0.19-0.072-0.085-0.043-0.152-0.053-0.435-0.057-0.352-0.008-0.445 0.012-0.445 0.102 0 0.060 0.092 0.125 0.18 0.125 0.037 0 0.072 0.010 0.080 0.023 0.023 0.035-0.012 0.102-0.053 0.102-0.020 0-0.027 0.012-0.018 0.027 0.010 0.017-0.002 0.023-0.030 0.017s-0.045-0.025-0.040-0.045c0.010-0.043-0.045-0.078-0.1-0.060-0.025 0.008-0.045 0.002-0.045-0.012s-0.015-0.027-0.030-0.027c-0.055-0.002-0.205-0.14-0.185-0.172 0.010-0.015 0.027-0.023 0.040-0.015 0.027 0.018 0.15-0.037 0.15-0.068 0-0.012-0.070-0.020-0.155-0.015-0.152 0.008-0.158 0.010-0.15 0.070 0.002 0.037-0.012 0.075-0.037 0.095-0.035 0.025-0.037 0.040-0.015 0.075 0.015 0.023 0.040 0.040 0.057 0.035 0.015-0.002 0.045 0.012 0.068 0.033 0.035 0.038 0.035 0.043-0.015 0.055-0.027 0.008-0.053 0.023-0.053 0.035s-0.012 0.023-0.025 0.023c-0.015 0-0.023-0.030-0.020-0.067 0.005-0.053-0.005-0.070-0.057-0.082-0.040-0.012-0.080-0.005-0.11 0.015-0.025 0.020-0.033 0.035-0.018 0.035 0.018 0 0.030 0.017 0.030 0.038 0 0.040-0.148 0.052-0.297 0.023-0.107-0.023-0.098-0.068 0.010-0.055 0.065 0.008 0.085 0.003 0.078-0.020-0.008-0.018 0.008-0.035 0.030-0.040 0.025-0.008 0.002-0.023-0.057-0.043-0.12-0.040-0.197-0.123-0.158-0.17 0.020-0.025 0.012-0.033-0.033-0.033-0.125 0-0.175 0.027-0.158 0.085 0.018 0.053 0.015 0.053-0.035 0.005-0.030-0.025-0.075-0.040-0.1-0.035-0.065 0.018-0.332-0.025-0.373-0.060-0.018-0.012-0.15-0.030-0.295-0.037-0.225-0.010-0.26-0.008-0.248 0.025zM15.85 15.775c0 0.027-0.010 0.050-0.025 0.050-0.012 0-0.025-0.023-0.025-0.050s0.012-0.050 0.025-0.050c0.015 0 0.025 0.023 0.025 0.050zM14.063 16c0.008 0.012 0.088 0.025 0.175 0.025 0.232 0 0.22 0.040-0.015 0.045-0.117 0.003-0.195-0.005-0.185-0.020 0.008-0.012-0.008-0.032-0.030-0.047-0.040-0.023-0.040-0.025-0.002-0.027 0.023 0 0.050 0.010 0.057 0.025zM15.875 16.175c0 0.012-0.010 0.025-0.025 0.025-0.012 0-0.025-0.012-0.025-0.025 0-0.015 0.012-0.025 0.025-0.025 0.015 0 0.025 0.010 0.025 0.025z"></path>
<path d="M14.865 15.697c-0.010 0.012 0 0.030 0.015 0.037 0.018 0.008 0.002 0.010-0.035 0.005-0.11-0.012-0.080 0.025 0.050 0.068 0.19 0.063 0.328 0 0.225-0.102-0.035-0.035-0.235-0.040-0.255-0.008z"></path>
<path d="M16.262 15.975c-0.008 0.012-0.003 0.025 0.010 0.025 0.015 0 0.027-0.012 0.027-0.025 0-0.015-0.005-0.025-0.010-0.025-0.008 0-0.020 0.010-0.027 0.025z"></path>
<path d="M15.963 16.4c-0.008 0.012 0.008 0.025 0.035 0.025s0.057-0.012 0.065-0.025c0.008-0.015-0.008-0.025-0.035-0.025s-0.057 0.010-0.065 0.025z"></path>
<path d="M16.188 16.425c-0.008 0.012-0.003 0.025 0.010 0.025 0.015 0 0.027-0.012 0.027-0.025 0-0.015-0.005-0.025-0.010-0.025-0.008 0-0.020 0.010-0.027 0.025z"></path>
<path d="M16.212 16.8c-0.008 0.012 0.003 0.025 0.023 0.025 0.023 0 0.040-0.012 0.040-0.025 0-0.015-0.010-0.025-0.023-0.025-0.015 0-0.032 0.010-0.040 0.025z"></path>
<path d="M12.85 16.945c0 0.012 0.027 0.047 0.063 0.080l0.060 0.058-0.030-0.080c-0.025-0.070-0.092-0.11-0.092-0.058z"></path>
<path d="M16.3 18.797c0 0.012 0.012 0.032 0.025 0.040 0.015 0.008 0.025 0.005 0.025-0.010 0-0.012-0.010-0.032-0.025-0.040-0.012-0.008-0.025-0.005-0.025 0.010z"></path>
<path d="M16.003 18.9c-0.035 0.008-0.065 0.027-0.072 0.047-0.008 0.025 0 0.027 0.043 0.003 0.042-0.020 0.077-0.020 0.147 0.003 0.13 0.043 0.258 0.113 0.238 0.133-0.008 0.008 0.030 0.015 0.087 0.015s0.105-0.008 0.105-0.020c-0.003-0.023-0.295-0.152-0.402-0.177-0.047-0.010-0.113-0.012-0.145-0.003z"></path>
<path d="M11.4 19.113c0 0.020 0.012 0.038 0.025 0.038 0.015 0 0.025-0.017 0.025-0.038s-0.010-0.038-0.025-0.038c-0.012 0-0.025 0.017-0.025 0.038z"></path>
<path d="M16.637 19.13c0.012 0.035 0.003 0.045-0.043 0.047-0.032 0.003-0.015 0.012 0.043 0.023 0.108 0.020 0.288 0.005 0.288-0.025 0-0.027-0.070-0.052-0.195-0.075-0.095-0.015-0.105-0.012-0.093 0.030z"></path>
<path d="M16.313 19.2c0.008 0.012 0.040 0.025 0.070 0.025 0.045 0 0.047-0.005 0.017-0.025-0.050-0.032-0.108-0.032-0.087 0z"></path>
<path d="M17 19.2c0 0.012 0.023 0.025 0.050 0.025s0.050-0.012 0.050-0.025c0-0.015-0.023-0.025-0.050-0.025s-0.050 0.010-0.050 0.025z"></path>
<path d="M15.477 20.39c0 0.027 0.008 0.035 0.015 0.015 0.008-0.017 0.005-0.040-0.002-0.047-0.008-0.010-0.015 0.005-0.012 0.032z"></path>
<path d="M17.413 23.625c-0.020 0.032 0.113 0.032 0.163 0 0.027-0.017 0.015-0.025-0.055-0.025-0.050 0-0.1 0.010-0.108 0.025z"></path>
<path d="M10.575 13.915c-0.422 0.050-0.553 0.070-0.838 0.127-0.178 0.035-0.33 0.068-0.335 0.072-0.033 0.030 0.287 0.297 0.598 0.502 0.175 0.115 0.6 0.357 0.63 0.357 0.008 0 0.085-0.098 0.172-0.22 0.162-0.223 0.43-0.537 0.57-0.67 0.098-0.092 0.098-0.125-0.002-0.145-0.113-0.020-0.688-0.037-0.795-0.025z"></path>
<path d="M20.715 13.928c-0.095 0.012-0.18 0.027-0.185 0.035-0.008 0.005 0.085 0.113 0.2 0.235 0.117 0.123 0.3 0.34 0.407 0.482 0.105 0.143 0.203 0.268 0.212 0.28 0.027 0.027 0.45-0.197 0.738-0.395 0.258-0.175 0.525-0.415 0.495-0.443-0.025-0.023-0.45-0.107-0.795-0.16-0.323-0.047-0.852-0.068-1.073-0.035z"></path>
<path d="M27.058 14.277c-0.337 0.030-0.727 0.185-1.050 0.412-0.115 0.082-0.177 0.11-0.25 0.113-0.052 0-0.18 0.015-0.282 0.030l-0.188 0.030-0.24-0.107c-0.133-0.057-0.35-0.135-0.488-0.172-0.227-0.060-0.288-0.068-0.735-0.068-0.387-0.002-0.532 0.008-0.7 0.045-0.48 0.105-0.973 0.303-1.395 0.565l-0.205 0.127 0.067 0.117c0.035 0.065 0.075 0.127 0.085 0.14s0.108-0.035 0.215-0.102c0.108-0.068 0.27-0.168 0.363-0.217l0.168-0.092 0.038 0.075c0.023 0.040 0.040 0.102 0.040 0.135 0 0.16 0.133 0.893 0.18 0.993 0.163 0.345 0.845 0.788 1.655 1.073l0.223 0.078-0.017-0.19c-0.082-0.905-0.442-1.613-0.945-1.857-0.135-0.063-0.433-0.143-0.73-0.19-0.227-0.037-0.27-0.063-0.26-0.15 0.005-0.037 0.063-0.065 0.247-0.127 0.422-0.143 0.613-0.172 1.085-0.17 0.375 0.002 0.453 0.010 0.67 0.068 1.035 0.277 1.91 1.14 2.35 2.32 0.207 0.555 0.325 1.102 0.37 1.742 0.025 0.372 0.015 0.745-0.040 1.267-0.010 0.105-0.008 0.113 0.012 0.050 0.065-0.2 0.105-0.777 0.090-1.288-0.008-0.282-0.025-0.57-0.038-0.637-0.012-0.070-0.017-0.13-0.012-0.135 0.025-0.027 0.125 0.212 0.25 0.598 0.227 0.715 0.433 1.183 0.64 1.462 0.128 0.175 0.398 0.387 0.68 0.54 0.215 0.115 0.718 0.325 0.742 0.308 0.008-0.005-0.010-0.117-0.040-0.253-0.205-0.902-0.438-1.48-0.712-1.76-0.23-0.233-0.595-0.45-1.063-0.622-0.242-0.093-0.253-0.098-0.325-0.223-0.063-0.105-0.085-0.125-0.13-0.115-0.047 0.012-0.058-0.003-0.082-0.13-0.207-1.040-0.62-1.878-1.225-2.482-0.133-0.13-0.32-0.295-0.42-0.363-0.098-0.070-0.177-0.133-0.18-0.14 0-0.008 0.075-0.025 0.17-0.040 0.168-0.025 0.168-0.025 0.267 0.055 0.355 0.285 1.16 0.66 1.675 0.777 0.29 0.068 0.905 0.063 1.4-0.012 0.49-0.072 0.875-0.158 0.875-0.195 0-0.050-0.335-0.325-0.65-0.535-0.425-0.285-1.087-0.6-1.462-0.7-0.163-0.043-0.485-0.063-0.692-0.045z"></path>
<path d="M4.237 14.325c-0.36 0.092-1.010 0.398-1.405 0.655-0.357 0.232-0.737 0.547-0.703 0.585 0.053 0.053 0.855 0.195 1.333 0.235 0.345 0.030 0.665 0.023 0.92-0.025 0.465-0.088 1.4-0.522 1.747-0.813 0.060-0.050 0.080-0.053 0.21-0.033 0.080 0.012 0.15 0.025 0.155 0.030 0.003 0.005-0.065 0.060-0.155 0.125-0.655 0.467-1.185 1.232-1.475 2.138-0.072 0.225-0.215 0.797-0.215 0.867 0 0.008-0.022 0.008-0.050-0.003-0.037-0.012-0.060 0.008-0.11 0.108-0.058 0.115-0.072 0.125-0.258 0.192-0.718 0.258-1.17 0.585-1.388 1-0.165 0.323-0.322 0.795-0.458 1.4-0.033 0.137-0.053 0.258-0.047 0.267 0.018 0.027 0.337-0.093 0.61-0.227 0.552-0.273 0.792-0.492 1.018-0.94 0.165-0.325 0.352-0.813 0.483-1.25 0.045-0.152 0.103-0.31 0.13-0.35l0.048-0.075-0.013 0.1c-0.008 0.055-0.020 0.325-0.030 0.6-0.013 0.392-0.008 0.575 0.025 0.85 0.043 0.348 0.105 0.675 0.077 0.4-0.053-0.508-0.063-0.875-0.037-1.233 0.058-0.82 0.22-1.48 0.527-2.128 0.357-0.753 0.912-1.365 1.553-1.71 0.713-0.387 1.512-0.447 2.345-0.178 0.325 0.105 0.332 0.11 0.313 0.193-0.015 0.055-0.035 0.068-0.133 0.080-0.307 0.043-0.705 0.145-0.873 0.227-0.322 0.155-0.595 0.518-0.758 1.005-0.107 0.325-0.21 0.98-0.16 1.012 0.032 0.017 0.5-0.163 0.832-0.323 0.522-0.25 0.915-0.563 1.027-0.815 0.025-0.060 0.078-0.305 0.113-0.545 0.080-0.54 0.078-0.527 0.12-0.585 0.033-0.045 0.037-0.043 0.17 0.023 0.075 0.037 0.227 0.13 0.342 0.203 0.113 0.075 0.215 0.135 0.225 0.135 0.018 0 0.155-0.23 0.155-0.258 0-0.023-0.387-0.25-0.623-0.367s-0.695-0.275-0.978-0.338c-0.262-0.057-0.877-0.078-1.147-0.037-0.255 0.037-0.633 0.152-0.838 0.255l-0.147 0.075-0.29-0.033c-0.287-0.030-0.29-0.030-0.492-0.165-0.423-0.277-0.765-0.383-1.235-0.38-0.195 0-0.343 0.015-0.463 0.047z"></path>
<path d="M9.557 19.462c0.018 0.54 0.055 0.823 0.182 1.335 0.18 0.727 0.455 1.355 0.873 1.99 0.857 1.305 2.19 2.268 3.688 2.665 0.175 0.047 0.31 0.098 0.348 0.13 0.057 0.055 0.057 0.063 0.045 0.38-0.018 0.402-0.17 1.538-0.268 1.977-0.148 0.66-0.34 1.302-0.568 1.89-0.095 0.245-0.137 0.32-0.252 0.448-0.075 0.082-0.195 0.19-0.265 0.238l-0.127 0.085h5.415l-0.195-0.223c-0.12-0.135-0.212-0.267-0.242-0.343-0.378-0.995-0.57-1.668-0.73-2.56-0.087-0.48-0.157-1.082-0.177-1.477l-0.015-0.34 0.11-0.075c0.060-0.043 0.172-0.090 0.247-0.108 0.215-0.050 0.742-0.238 1.023-0.36 2.015-0.892 3.46-2.84 3.738-5.040 0.050-0.395 0.073-0.92 0.043-1.012l-0.023-0.075-0.003 0.087c-0.005 0.17-0.075 0.617-0.14 0.913-0.265 1.185-0.848 2.245-1.712 3.115-0.72 0.725-1.517 1.223-2.505 1.56-0.707 0.242-1.442 0.352-2.232 0.33-1.272-0.038-2.375-0.385-3.412-1.080-0.793-0.532-1.39-1.16-1.935-2.032-0.105-0.168-0.35-0.668-0.45-0.92-0.195-0.495-0.332-1.043-0.405-1.61-0.023-0.185-0.047-0.343-0.053-0.35-0.008-0.008-0.008 0.2 0 0.462z"></path>
</symbol>

<symbol id="icon-close" viewBox="0 0 32 32">
<path d="M31.439 3.166l-3.166-3.166-12.553 12.553-12.553-12.553-3.166 3.166 12.553 12.553-12.553 12.553 3.166 3.166 12.553-12.553 12.553 12.553 3.166-3.166-12.553-12.553 12.553-12.553z"></path>
</symbol>
<symbol id="icon-menu" viewBox="0 0 48 32">
<path d="M0 5.333v-5.333h48v5.333h-48zM0 18.667h48v-5.333h-48v5.333zM0 32h48v-5.333h-48v5.333z"></path>
</symbol>
<symbol id="icon-Bag" viewBox="0 0 32 32">
<path d="M16.007 2.667c3.573 0 6.511 2.808 6.66 6.366h-0.035c0.004 0.103-0.016 0.206-0.058 0.301h0.208c1.623 0 3.322 1.125 4.003 3.84l0.074 0.32 1.025 8.26c0.738 5.268-2.144 7.483-6.076 7.577l-0.264 0.003h-11.053c-3.996 0-7.075-1.456-6.398-7.222l0.046-0.358 1.037-8.26c0.511-2.924 2.228-4.077 3.882-4.156l0.183-0.004h0.104c-0.018-0.1-0.018-0.201 0-0.301 0.149-3.558 3.087-6.366 6.66-6.366zM12.129 13.772c-0.651 0-1.178 0.543-1.178 1.213s0.528 1.213 1.178 1.213c0.651 0 1.178-0.543 1.178-1.213l-0.009-0.152c-0.073-0.598-0.568-1.061-1.169-1.061zM19.848 13.772c-0.651 0-1.178 0.543-1.178 1.213s0.528 1.213 1.178 1.213c0.651 0 1.178-0.543 1.178-1.213s-0.528-1.213-1.178-1.213zM15.954 4.403c-2.565 0-4.645 2.073-4.645 4.629 0.018 0.1 0.018 0.201 0 0.301h9.349c-0.037-0.096-0.057-0.198-0.058-0.301 0-2.557-2.080-4.629-4.645-4.629z"></path>
</symbol>
<symbol id="icon-search" viewBox="0 0 32 32">
<path d="M19.427 20.427c-1.39 0.99-3.090 1.573-4.927 1.573-4.694 0-8.5-3.806-8.5-8.5s3.806-8.5 8.5-8.5c4.694 0 8.5 3.806 8.5 8.5 0 2.347-0.951 4.472-2.49 6.010l5.997 5.997c0.275 0.275 0.268 0.716-0.008 0.992-0.278 0.278-0.72 0.28-0.992 0.008l-6.081-6.081zM14.5 21c4.142 0 7.5-3.358 7.5-7.5s-3.358-7.5-7.5-7.5c-4.142 0-7.5 3.358-7.5 7.5s3.358 7.5 7.5 7.5v0z"></path>
</symbol>
<symbol id="icon-search1" viewBox="0 0 32 32">
<path d="M31.008 27.231l-7.58-6.447c-0.784-0.705-1.622-1.029-2.299-0.998 1.789-2.096 2.87-4.815 2.87-7.787 0-6.627-5.373-12-12-12s-12 5.373-12 12 5.373 12 12 12c2.972 0 5.691-1.081 7.787-2.87-0.031 0.677 0.293 1.515 0.998 2.299l6.447 7.58c1.104 1.226 2.907 1.33 4.007 0.23s0.997-2.903-0.23-4.007zM12 20c-4.418 0-8-3.582-8-8s3.582-8 8-8 8 3.582 8 8-3.582 8-8 8z"></path>
</symbol>
<symbol id="icon-arrow-link" viewBox="0 0 64 32">
<path d="M6 16.534h50M56 16.534c0 0-5.984-3.935-7.2-7.2M56 16.534c0 0-5.29 3.698-7.2 7.2"></path>
</symbol>

<symbol id="icon-rating" viewBox="0 0 32 32">
<path fill="#f6b76f" style="fill: var(--color1, #f6b76f)" d="M25.349 19.286c-0.395 0.382-0.576 0.933-0.486 1.474l1.355 7.478c0.114 0.634-0.154 1.275-0.686 1.642-0.521 0.38-1.215 0.426-1.783 0.122l-6.751-3.511c-0.235-0.125-0.495-0.192-0.762-0.199h-0.413c-0.143 0.021-0.284 0.067-0.412 0.137l-6.752 3.528c-0.334 0.167-0.712 0.226-1.082 0.167-0.902-0.17-1.504-1.028-1.357-1.932l1.357-7.478c0.090-0.546-0.091-1.1-0.486-1.488l-5.504-5.32c-0.46-0.445-0.62-1.114-0.41-1.718 0.204-0.602 0.726-1.041 1.355-1.14l7.575-1.096c0.576-0.059 1.082-0.409 1.341-0.926l3.338-6.825c0.079-0.152 0.181-0.292 0.305-0.41l0.137-0.106c0.072-0.079 0.154-0.144 0.245-0.198l0.166-0.061 0.259-0.106h0.642c0.573 0.059 1.078 0.401 1.341 0.912l3.382 6.794c0.244 0.497 0.718 0.842 1.265 0.926l7.575 1.096c0.64 0.091 1.175 0.532 1.387 1.14 0.2 0.61 0.027 1.278-0.442 1.718l-5.7 5.381z"></path>
</symbol>

<symbol id="icon-add" viewBox="0 0 24 24">
<path d="M18.984 12.984h-6v6h-1.969v-6h-6v-1.969h6v-6h1.969v6h6v1.969z"></path>
</symbol>

<symbol id="icon-plus" viewBox="0 0 32 32">
<path d="M15.5 29.5c-7.18 0-13-5.82-13-13s5.82-13 13-13 13 5.82 13 13-5.82 13-13 13zM21.938 15.938c0-0.552-0.448-1-1-1h-4v-4c0-0.552-0.447-1-1-1h-1c-0.553 0-1 0.448-1 1v4h-4c-0.553 0-1 0.448-1 1v1c0 0.553 0.447 1 1 1h4v4c0 0.553 0.447 1 1 1h1c0.553 0 1-0.447 1-1v-4h4c0.552 0 1-0.447 1-1v-1z"></path>
</symbol>
</defs>
</svg>
